<svg version="1.1" xmlns="http://www.w3.org/2000/svg" xmlns:xlink="http://www.w3.org/1999/xlink" x="0px" y="0px"
	 viewBox="0 0 24 6" style="enable-background:new 0 0 24 6;" xml:space="preserve">
<path fill="#FFFFFF" d="M12,6c-1.7,0-3-1.3-3-3c0-1.7,1.3-3,3-3c1.7,0,3,1.3,3,3C15,4.7,13.7,6,12,6z M12,2c-0.6,0-1,0.4-1,1
	c0,0.6,0.4,1,1,1c0.6,0,1-0.4,1-1C13,2.4,12.6,2,12,2z"/>
<path fill="#FFFFFF" d="M3,6C1.3,6,0,4.7,0,3c0-1.7,1.3-3,3-3c1.7,0,3,1.3,3,3C6,4.7,4.7,6,3,6z M3,2C2.4,2,2,2.4,2,3c0,0.6,0.4,1,1,1
	s1-0.4,1-1C4,2.4,3.6,2,3,2z"/>
<path fill="#FFFFFF" d="M21,6c-1.7,0-3-1.3-3-3c0-1.7,1.3-3,3-3c1.7,0,3,1.3,3,3C24,4.7,22.7,6,21,6z M21,2c-0.6,0-1,0.4-1,1
	c0,0.6,0.4,1,1,1s1-0.4,1-1C22,2.4,21.6,2,21,2z"/>
</svg>
