<svg xmlns="http://www.w3.org/2000/svg" xmlns:xlink="http://www.w3.org/1999/xlink" viewBox="0 0 198 112">
	<path opacity="0.4" fill="#B2E3FF" d="M158,53c1.1,0,2,0.9,2,2s-0.9,2-2,2s-2-0.9-2-2S156.9,53,158,53 M158,51c-2.2,0-4,1.8-4,4
		s1.8,4,4,4s4-1.8,4-4S160.2,51,158,51L158,51z"/>
	<path opacity="0.6" fill="#B2E3FF" d="M42,88c1.1,0,2,0.9,2,2s-0.9,2-2,2s-2-0.9-2-2S40.9,88,42,88 M42,86c-2.2,0-4,1.8-4,4s1.8,4,4,4
		s4-1.8,4-4S44.2,86,42,86L42,86z"/>
<circle opacity="0.25" fill="#B2E3FF" cx="2" cy="104" r="2"/>
	<path opacity="0.8" fill="#B2E3FF" d="M118,0c-1.1,0-2,0.9-2,2s0.9,2,2,2s2-0.9,2-2S119.1,0,118,0L118,0z"/>
	<path opacity="0.2" fill="#B2E3FF" d="M138,104c1.7,0,3,1.3,3,3s-1.3,3-3,3s-3-1.3-3-3S136.3,104,138,104 M138,102c-2.8,0-5,2.2-5,5
		s2.2,5,5,5s5-2.2,5-5S140.8,102,138,102L138,102z"/>
<path opacity="0.75" fill="#B2E3FF" d="M195.4,89l2.3-2.3c0.4-0.4,0.4-1,0-1.4s-1-0.4-1.4,0l-2.3,2.3l-2.3-2.3c-0.4-0.4-1-0.4-1.4,0
	s-0.4,1,0,1.4l2.3,2.3l-2.3,2.3c-0.4,0.4-0.4,1,0,1.4c0.2,0.2,0.5,0.3,0.7,0.3s0.5-0.1,0.7-0.3l2.3-2.3l2.3,2.3
	c0.2,0.2,0.5,0.3,0.7,0.3s0.5-0.1,0.7-0.3c0.4-0.4,0.4-1,0-1.4L195.4,89z"/>
<path opacity="0.25" fill="#B2E3FF" d="M47.4,17l3.3-3.3c0.4-0.4,0.4-1,0-1.4s-1-0.4-1.4,0L46,15.6l-3.3-3.3c-0.4-0.4-1-0.4-1.4,0
	s-0.4,1,0,1.4l3.3,3.3l-3.3,3.3c-0.4,0.4-0.4,1,0,1.4c0.2,0.2,0.5,0.3,0.7,0.3s0.5-0.1,0.7-0.3l3.3-3.3l3.3,3.3
	c0.2,0.2,0.5,0.3,0.7,0.3s0.5-0.1,0.7-0.3c0.4-0.4,0.4-1,0-1.4L47.4,17z"/>
</svg>
