<svg version="1.1" xmlns="http://www.w3.org/2000/svg" xmlns:xlink="http://www.w3.org/1999/xlink" x="0px" y="0px"
	 viewBox="0 0 60 60" style="enable-background:new 0 0 60 60;" xml:space="preserve">
	<path fill="#448AFF" d="M59,38H49c-0.6,0-1-0.4-1-1s0.4-1,1-1h9V6H2v30h11.1c0.6,0,1,0.4,1,1s-0.4,1-1,1H1
		c-0.6,0-1-0.4-1-1V5c0-0.6,0.4-1,1-1h58c0.6,0,1,0.4,1,1v32C60,37.6,59.6,38,59,38z"/>
	<path fill="#448AFF" d="M51,34h-2c-0.6,0-1-0.4-1-1s0.4-1,1-1h1.1c0.4-2,1.9-3.5,3.9-3.9V13.9c-2-0.4-3.5-1.9-3.9-3.9
		H9.9C9.5,12,8,13.5,6,13.9v14.2C8,28.5,9.5,30,9.9,32H16c0.6,0,1,0.4,1,1s-0.4,1-1,1H9c-0.6,0-1-0.4-1-1c0-1.7-1.3-3-3-3
		c-0.6,0-1-0.4-1-1V13c0-0.6,0.4-1,1-1c1.7,0,3-1.3,3-3c0-0.6,0.4-1,1-1h42c0.6,0,1,0.4,1,1c0,1.7,1.3,3,3,3c0.6,0,1,0.4,1,1v16
		c0,0.6-0.4,1-1,1c-1.7,0-3,1.3-3,3C52,33.6,51.6,34,51,34z"/>
	<path fill="#448AFF" d="M25.1,32c-0.2,0-0.5-0.1-0.7-0.2C21.7,29.4,20,25.3,20,21c0-7.2,4.5-13,10-13
		c5.5,0,10,5.8,10,13c0,1.4-0.2,2.9-0.6,4.3c-0.1,0.5-0.7,0.8-1.2,0.7c-0.5-0.1-0.9-0.7-0.7-1.2c0.3-1.2,0.5-2.5,0.5-3.8
		c0-6.1-3.6-11-8-11s-8,4.9-8,11c0,3.8,1.4,7.2,3.7,9.3c0.4,0.4,0.5,1,0.1,1.4C25.6,31.9,25.4,32,25.1,32z"/>
	<path fill="#448AFF" d="M47,24c-1.7,0-3-1.3-3-3s1.3-3,3-3s3,1.3,3,3S48.7,24,47,24z M47,20c-0.6,0-1,0.4-1,1
		s0.4,1,1,1s1-0.4,1-1S47.6,20,47,20z"/>
	<path fill="#448AFF" d="M38,36c-4,0-8-1.4-8-4s4-4,8-4s8,1.4,8,4S42,36,38,36z M38,30c-3.7,0-6,1.3-6,2s2.3,2,6,2
		s6-1.3,6-2S41.7,30,38,30z"/>
	<path fill="#448AFF" d="M38,40c-4,0-8-1.4-8-4v-4c0-0.6,0.4-1,1-1c0.6,0,1,0.4,1,1v4c0,0.7,2.3,2,6,2s6-1.3,6-2v-4
		c0-0.6,0.4-1,1-1s1,0.4,1,1v4C46,38.6,42,40,38,40z"/>
	<path fill="#448AFF" d="M38,44c-4,0-8-1.4-8-4v-4c0-0.6,0.4-1,1-1c0.6,0,1,0.4,1,1v4c0,0.7,2.3,2,6,2s6-1.3,6-2v-4
		c0-0.6,0.4-1,1-1s1,0.4,1,1v4C46,42.6,42,44,38,44z"/>
	<path fill="#448AFF" d="M38,48c-4,0-8-1.4-8-4v-4c0-0.6,0.4-1,1-1c0.6,0,1,0.4,1,1v4c0,0.7,2.3,2,6,2s6-1.3,6-2v-4
		c0-0.6,0.4-1,1-1s1,0.4,1,1v4C46,46.6,42,48,38,48z"/>
	<path fill="#448AFF" d="M38,52c-4,0-8-1.4-8-4v-4c0-0.6,0.4-1,1-1c0.6,0,1,0.4,1,1v4c0,0.7,2.3,2,6,2s6-1.3,6-2v-4
		c0-0.6,0.4-1,1-1s1,0.4,1,1v4C46,50.6,42,52,38,52z"/>
	<path fill="#448AFF" d="M24,42c-4,0-8-1.4-8-4s4-4,8-4s8,1.4,8,4S28,42,24,42z M24,36c-3.7,0-6,1.3-6,2s2.3,2,6,2
		s6-1.3,6-2S27.7,36,24,36z"/>
	<path fill="#448AFF" d="M24,46c-4,0-8-1.4-8-4v-4c0-0.6,0.4-1,1-1s1,0.4,1,1v4c0,0.7,2.3,2,6,2s6-1.3,6-2v-4
		c0-0.6,0.4-1,1-1c0.6,0,1,0.4,1,1v4C32,44.6,28,46,24,46z"/>
	<path fill="#448AFF" d="M24,50c-4,0-8-1.4-8-4v-4c0-0.6,0.4-1,1-1s1,0.4,1,1v4c0,0.7,2.3,2,6,2s6-1.3,6-2v-4
		c0-0.6,0.4-1,1-1c0.6,0,1,0.4,1,1v4C32,48.6,28,50,24,50z"/>
	<path fill="#448AFF" d="M24,54c-4,0-8-1.4-8-4v-4c0-0.6,0.4-1,1-1s1,0.4,1,1v4c0,0.7,2.3,2,6,2s6-1.3,6-2v-4
		c0-0.6,0.4-1,1-1c0.6,0,1,0.4,1,1v4C32,52.6,28,54,24,54z"/>
	<path fill="#448AFF" d="M38,56c-4,0-8-1.4-8-4v-4c0-0.6,0.4-1,1-1c0.6,0,1,0.4,1,1v4c0,0.7,2.3,2,6,2s6-1.3,6-2v-4
		c0-0.6,0.4-1,1-1s1,0.4,1,1v4C46,54.6,42,56,38,56z"/>
	<path fill="#448AFF" d="M52,48c-4,0-8-1.4-8-4s4-4,8-4s8,1.4,8,4S56,48,52,48z M52,42c-3.7,0-6,1.3-6,2s2.3,2,6,2
		s6-1.3,6-2S55.7,42,52,42z"/>
	<path fill="#448AFF" d="M52,52c-4,0-8-1.4-8-4v-4c0-0.6,0.4-1,1-1s1,0.4,1,1v4c0,0.7,2.3,2,6,2s6-1.3,6-2v-4
		c0-0.6,0.4-1,1-1s1,0.4,1,1v4C60,50.6,56,52,52,52z"/>
	<path fill="#448AFF" d="M13,24c-1.7,0-3-1.3-3-3s1.3-3,3-3s3,1.3,3,3S14.7,24,13,24z M13,20c-0.6,0-1,0.4-1,1s0.4,1,1,1
		s1-0.4,1-1S13.6,20,13,20z"/>
	<path fill="#448AFF" d="M25.1,32c-0.2,0-0.5-0.1-0.7-0.2c-0.7-0.6-1.3-1.3-1.8-2c-0.3-0.4-0.2-1,0.2-1.3
		c0.9-0.8,2.2-1.8,3.9-2.2c0-0.2,0-0.3,0-0.5c0-0.1-0.2-0.5-0.3-0.7c-0.2-0.4-0.5-1-0.6-1.6c-0.3-0.7-0.5-1.4-0.5-1.9
		c0-0.3,0.1-0.6,0.2-0.8c0-0.1,0-0.2,0-0.3l-0.1-0.5c-0.3-1.9,0.3-3.3,1.8-4.1c0-0.1,0-0.1,0-0.2c0-0.6,0.1-1.3,0.7-1.5
		c0.4-0.1,0.9,0,1.1,0.2c0.4,0.4,1.8,0.8,2.4,0.9c0.3,0.1,0.5,0.1,0.7,0.2c1.9,0.7,2.8,2.3,2.4,4.5l-0.1,0.5c0,0.1,0,0.2,0,0.3
		c0.1,0.2,0.2,0.5,0.2,0.8c0,0.6-0.2,1.2-0.5,1.9c-0.1,0.7-0.4,1.2-0.6,1.7c-0.1,0.2-0.3,0.5-0.3,0.7l0,0.1c0,0.5-0.5,1-1,1
		c0,0,0,0,0,0c-0.5,0-1-0.4-1-1c0,0,0-0.1,0-0.1c0-0.7,0.3-1.2,0.5-1.6c0.2-0.4,0.4-0.8,0.4-1.1c0-0.1,0-0.3,0.1-0.4
		c0.2-0.5,0.4-0.9,0.4-1.2c0,0,0,0,0,0c-0.2-0.2-0.2-0.5-0.2-0.8c0-0.2,0.1-0.4,0.1-0.6l0.1-0.5c0.3-1.5-0.4-2-1.1-2.2
		c-0.1,0-0.3-0.1-0.5-0.1c-0.7-0.2-1.3-0.4-1.9-0.6c-0.1,0.3-0.3,0.6-0.6,0.8c-1,0.5-1.3,1-1.1,2.2l0.1,0.6c0,0.2,0.1,0.4,0.1,0.6
		c0.1,0.3,0,0.6-0.2,0.8c0,0.4,0.1,0.8,0.3,1.2c0.1,0.1,0.1,0.3,0.1,0.4c0,0.3,0.2,0.7,0.4,1c0.2,0.5,0.5,1,0.5,1.6
		c0,0.3,0,0.6,0,0.9c0,0.8-0.5,1.4-1.3,1.6c-1,0.2-1.9,0.7-2.6,1.3c0.3,0.3,0.6,0.6,0.9,0.9c0.4,0.4,0.5,1,0.1,1.4
		C25.7,31.9,25.4,32,25.1,32z"/>
</svg>
