<svg version="1.1" xmlns="http://www.w3.org/2000/svg" xmlns:xlink="http://www.w3.org/1999/xlink" x="0px" y="0px"
	 viewBox="0 0 60 60" style="enable-background:new 0 0 60 60;" xml:space="preserve">
<path fill="#448AFF" d="M12.5,47.9l-1.3-1.5c2.5-2.2,6.6-3.9,11.4-4.8c0.2,0,0.3-0.2,0.3-0.4c0-0.8,0-1.6,0-2.5
	c0-0.7-0.5-1.7-1-2.6c-0.6-1.2-1.3-2.5-1.5-4.1c-0.8-1.7-1.2-3.4-1.2-4.7c0-0.8,0.2-1.4,0.5-2c-0.1-0.4-0.1-0.8-0.2-1.3
	c-0.1-0.5-0.2-1-0.3-1.5c-0.8-4.7,0.7-7.8,4.8-9.7c0.1-0.3,0.1-1,0.1-1.5c0.1-1.4,0.1-2.3,0.9-2.6c0.4-0.2,0.9-0.1,1.3,0.3
	c1.5,1.4,5.3,2.4,7.4,2.9c0.7,0.2,1.3,0.3,1.7,0.5c4.3,1.5,6.2,5.1,5.3,10.1c-0.1,0.5-0.2,1-0.2,1.4c-0.1,0.4-0.1,0.9-0.2,1.3
	c0.3,0.5,0.5,1.2,0.5,2c0,1.3-0.4,3-1.2,4.7c-0.1,1.6-0.8,3-1.5,4.2c-0.5,1-1,1.9-1,2.5c0,0.9,0,1.7,0,2.5c0,0.2,0.1,0.4,0.3,0.4
	c4.9,0.9,8.9,2.6,11.5,4.8l-1.3,1.5c-2.2-2-6-3.5-10.5-4.3c-1.2-0.2-2-1.3-2-2.5c0-0.8,0-1.5,0-2.4c0-1.2,0.6-2.3,1.2-3.5
	c0.6-1.2,1.2-2.4,1.3-3.6l0-0.2l0.1-0.2c0.7-1.5,1.1-2.9,1.1-4c0-0.5-0.1-0.8-0.3-1l-0.4-0.4l0.1-0.5c0.1-0.6,0.2-1.1,0.3-1.7
	c0.1-0.5,0.2-1,0.3-1.5c0.7-4-0.6-6.7-4-7.9c-0.3-0.1-0.8-0.2-1.5-0.4c-2.1-0.5-5.1-1.3-7.1-2.5c0,0,0,0.1,0,0.1
	c-0.1,1.5-0.1,2.7-1,3.1c-3.5,1.6-4.7,3.9-4,7.7c0.1,0.5,0.2,1,0.3,1.5c0.1,0.6,0.2,1.1,0.3,1.7l0.1,0.5l-0.4,0.4
	c-0.2,0.2-0.3,0.5-0.3,1c0,1.1,0.4,2.5,1.1,4l0.1,0.2l0,0.2c0.1,1.2,0.7,2.4,1.2,3.5c0.6,1.2,1.2,2.3,1.2,3.6c0,0.8,0,1.6,0,2.4
	c0.1,1.2-0.8,2.2-2,2.5C18.4,44.4,14.7,45.9,12.5,47.9z"/>
<path fill="#448AFF" d="M30,56C15.7,56,4,44.3,4,30C4,15.7,15.7,4,30,4c14.3,0,26,11.7,26,26C56,44.3,44.3,56,30,56z
	 M30,6C16.8,6,6,16.8,6,30s10.8,24,24,24s24-10.8,24-24S43.2,6,30,6z"/>
</svg>
