<svg version="1.1" xmlns="http://www.w3.org/2000/svg" xmlns:xlink="http://www.w3.org/1999/xlink" x="0px" y="0px"
	 viewBox="0 0 60 60" style="enable-background:new 0 0 60 60;" xml:space="preserve">
<path fill="#448AFF" d="M34.7,48h-9.3c-2.9,0-5.3-2.4-5.3-5.3V39c0-0.6,0.4-1,1-1h18c0.6,0,1,0.4,1,1v3.7
	C40,45.6,37.6,48,34.7,48z M22,40v2.7c0,1.8,1.5,3.3,3.3,3.3h9.3c1.8,0,3.3-1.5,3.3-3.3V40H22z"/>
<path fill="#448AFF" d="M30,60c-4.4,0-8-3.6-8-8v-5.5c0-0.6,0.4-1,1-1s1,0.4,1,1V52c0,3.3,2.7,6,6,6s6-2.7,6-6v-5.5
	c0-0.6,0.4-1,1-1s1,0.4,1,1V52C38,56.4,34.4,60,30,60z"/>
<path fill="#448AFF" d="M39,40H21c-0.6,0-1-0.4-1-1v-0.3c0-2.1-0.8-4-2.3-5.2c-4.7-4-7.1-9.8-6.6-16
	c0.7-9.1,7.8-16.4,16.8-17.4c5.5-0.6,10.8,1.1,14.8,4.7c4,3.6,6.3,8.8,6.3,14.2c0,5.6-2.5,10.9-6.8,14.5c-1.4,1.2-2.2,3-2.2,5V39
	C40,39.6,39.6,40,39,40z M22,38h16c0.1-2.4,1.2-4.5,2.9-6c3.8-3.2,6.1-8,6.1-13c0-4.8-2.1-9.4-5.7-12.7C37.7,3.1,33,1.6,28.1,2.1
	c-7.9,0.9-14.4,7.6-15,15.5c-0.4,5.5,1.7,10.7,5.9,14.3C20.7,33.4,21.8,35.6,22,38z"/>
<path fill="#448AFF" d="M36.2,56H23.9c-0.6,0-1-0.4-1-1s0.4-1,1-1h12.3c0.6,0,1,0.4,1,1S36.8,56,36.2,56z"/>
<path fill="#448AFF" d="M37,52H23.1c-0.6,0-1-0.4-1-1s0.4-1,1-1H37c0.6,0,1,0.4,1,1S37.6,52,37,52z"/>
<path fill="#448AFF" d="M36.8,32c-0.2,0-0.4-0.1-0.6-0.2c-0.5-0.3-0.6-0.9-0.3-1.4c0.5-0.8,1.2-1.5,1.9-2.2
	c1-1,2.1-2,2.9-3.7c0.2-0.5,0.8-0.7,1.3-0.5c0.5,0.2,0.7,0.8,0.5,1.3c-1,2-2.2,3.2-3.3,4.3c-0.7,0.6-1.2,1.2-1.6,1.8
	C37.5,31.8,37.2,32,36.8,32z"/>
<path fill="#448AFF" d="M19.3,11.6c-0.2,0-0.4-0.1-0.6-0.2c-0.4-0.3-0.5-1-0.2-1.4c2.8-3.6,7.1-5.7,11.6-5.7
	c0.6,0,1,0.4,1,1s-0.4,1-1,1c-4,0-7.6,1.8-10.1,5C19.9,11.5,19.6,11.6,19.3,11.6z"/>
<path fill="#448AFF" d="M16.6,18.1c0,0-0.1,0-0.1,0c-0.5-0.1-0.9-0.6-0.9-1.1c0.2-1.2,0.5-2.4,0.9-3.6
	c0.2-0.5,0.8-0.8,1.3-0.6s0.8,0.8,0.6,1.3c-0.4,1-0.7,2-0.8,3.1C17.5,17.8,17.1,18.1,16.6,18.1z"/>
</svg>
