<svg version="1.1" xmlns="http://www.w3.org/2000/svg" xmlns:xlink="http://www.w3.org/1999/xlink" x="0px" y="0px"
	 viewBox="0 0 60 60" style="enable-background:new 0 0 60 60;" xml:space="preserve">
		<path fill="#448AFF" d="M33,17h-6c-0.6,0-1-0.4-1-1s0.4-1,1-1h6c0.6,0,1,0.4,1,1S33.6,17,33,17z"/>
		<path fill="#448AFF" d="M39,23H21c-0.6,0-1-0.4-1-1s0.4-1,1-1h18c0.6,0,1,0.4,1,1S39.6,23,39,23z"/>
		<path fill="#448AFF" d="M39,29H21c-0.6,0-1-0.4-1-1s0.4-1,1-1h18c0.6,0,1,0.4,1,1S39.6,29,39,29z"/>
		<path fill="#448AFF" d="M47,33c-0.6,0-1-0.4-1-1V10.4L40.6,5H14v27c0,0.6-0.4,1-1,1s-1-0.4-1-1V4c0-0.6,0.4-1,1-1h28
			c0.3,0,0.5,0.1,0.7,0.3l6,6C47.9,9.5,48,9.7,48,10v22C48,32.6,47.6,33,47,33z"/>
		<path fill="#448AFF" d="M47,11h-6c-0.6,0-1-0.4-1-1V4c0-0.6,0.4-1,1-1s1,0.4,1,1v5h5c0.6,0,1,0.4,1,1S47.6,11,47,11z"
			/>
		<path fill="#448AFF" d="M57,57H3c-1.7,0-3-1.3-3-3V35c0-0.2,0-0.3,0.1-0.5l7-13C7.3,21.2,7.6,21,8,21h1
			c0.6,0,1,0.4,1,1s-0.4,1-1,1H8.6L2,35.3V54c0,0.6,0.4,1,1,1h54c0.6,0,1-0.4,1-1V35.3L51.4,23H51c-0.6,0-1-0.4-1-1s0.4-1,1-1h1
			c0.4,0,0.7,0.2,0.9,0.5l7,13C60,34.7,60,34.8,60,35v19C60,55.7,58.7,57,57,57z"/>
		<path fill="#448AFF" d="M39,45H21c-1.7,0-3-1.3-3-3v-5H1c-0.6,0-1-0.4-1-1s0.4-1,1-1h18c0.6,0,1,0.4,1,1v6
			c0,0.6,0.4,1,1,1h18c0.6,0,1-0.4,1-1v-6c0-0.6,0.4-1,1-1h18c0.6,0,1,0.4,1,1s-0.4,1-1,1H42v5C42,43.7,40.7,45,39,45z"/>
</svg>
