<svg version="1.1" xmlns="http://www.w3.org/2000/svg" xmlns:xlink="http://www.w3.org/1999/xlink" x="0px" y="0px"
	 viewBox="0 0 60 60" style="enable-background:new 0 0 60 60;" xml:space="preserve">
		<path fill="#448AFF" d="M52.9,57.9c-1.3,0-2.6-0.5-3.5-1.5L39.2,46.3c-1.9-1.9-1.9-5.1,0-7.1c1.9-1.9,5.1-1.9,7.1,0
			l10.1,10.1c0.9,0.9,1.5,2.2,1.5,3.5s-0.5,2.6-1.5,3.5C55.5,57.4,54.2,57.9,52.9,57.9z M42.8,39.8c-0.8,0-1.5,0.3-2.1,0.9
			c-1.2,1.2-1.2,3.1,0,4.2L50.8,55l0,0c1.1,1.1,3.1,1.1,4.2,0c0.6-0.6,0.9-1.3,0.9-2.1s-0.3-1.6-0.9-2.1L44.9,40.6
			C44.3,40.1,43.5,39.8,42.8,39.8z"/>
		<path fill="#448AFF" d="M38.9,42.7c-0.3,0-0.5-0.1-0.7-0.3l-3.3-3.3c-0.2-0.2-0.3-0.5-0.3-0.8c0-0.3,0.1-0.5,0.4-0.7
			c1-0.8,1.9-1.7,2.7-2.7c0.2-0.2,0.4-0.4,0.7-0.4c0.3,0,0.6,0.1,0.8,0.3l3.3,3.3c0.3,0.3,0.4,0.6,0.3,1c-0.1,0.3-0.4,0.6-0.7,0.7
			c-0.5,0.1-1,0.4-1.4,0.8C40.3,41,40,41.5,39.9,42c-0.1,0.3-0.4,0.6-0.7,0.7C39.1,42.7,39,42.7,38.9,42.7z M37.1,38.5l1.5,1.5
			c0.2-0.3,0.4-0.5,0.6-0.8c0,0,0,0,0,0c0.2-0.2,0.5-0.5,0.8-0.6l-1.5-1.5C38.1,37.6,37.6,38.1,37.1,38.5z"/>
		<path fill="#448AFF" d="M23,44C11.4,44,2,34.6,2,23C2,11.4,11.4,2,23,2c11.6,0,21,9.4,21,21C44,34.6,34.6,44,23,44z
			 M23,4C12.5,4,4,12.5,4,23s8.5,19,19,19s19-8.5,19-19S33.5,4,23,4z"/>
		<path fill="#448AFF" d="M23,40c-9.4,0-17-7.6-17-17S13.6,6,23,6s17,7.6,17,17S32.4,40,23,40z M23,8C14.7,8,8,14.7,8,23
			c0,8.3,6.7,15,15,15c8.3,0,15-6.7,15-15C38,14.7,31.3,8,23,8z"/>
		<path fill="#448AFF" d="M11,24c-0.6,0-1-0.4-1-1c0-7.2,5.8-13,13-13c0.6,0,1,0.4,1,1s-0.4,1-1,1c-6.1,0-11,4.9-11,11
			C12,23.6,11.6,24,11,24z"/>
</svg>
