<svg version="1.1" xmlns="http://www.w3.org/2000/svg" xmlns:xlink="http://www.w3.org/1999/xlink" x="0px" y="0px"
	 viewBox="0 0 60 60" style="enable-background:new 0 0 60 60;" xml:space="preserve">
	<path fill="#448AFF" d="M16,39c-0.3,0-0.5-0.1-0.7-0.3C15.1,38.5,15,38.3,15,38s0.1-0.5,0.3-0.7c0.4-0.4,1-0.4,1.4,0
		c0.2,0.2,0.3,0.5,0.3,0.7s-0.1,0.5-0.3,0.7C16.5,38.9,16.3,39,16,39z"/>
	<path fill="#448AFF" d="M12,39c-0.3,0-0.5-0.1-0.7-0.3C11.1,38.5,11,38.3,11,38s0.1-0.5,0.3-0.7c0.4-0.4,1-0.4,1.4,0
		c0.2,0.2,0.3,0.5,0.3,0.7s-0.1,0.5-0.3,0.7C12.5,38.9,12.3,39,12,39z"/>
	<path fill="#448AFF" d="M14,43c-0.3,0-0.5-0.1-0.7-0.3C13.1,42.5,13,42.3,13,42s0.1-0.5,0.3-0.7c0.4-0.4,1-0.4,1.4,0
		c0.2,0.2,0.3,0.5,0.3,0.7s-0.1,0.5-0.3,0.7C14.5,42.9,14.3,43,14,43z"/>
	<path fill="#448AFF" d="M12,47c-0.3,0-0.5-0.1-0.7-0.3C11.1,46.5,11,46.3,11,46c0-0.3,0.1-0.5,0.3-0.7
		c0.4-0.4,1-0.4,1.4,0c0.2,0.2,0.3,0.4,0.3,0.7c0,0.3-0.1,0.5-0.3,0.7C12.5,46.9,12.3,47,12,47z"/>
	<path fill="#448AFF" d="M48,47c-0.3,0-0.5-0.1-0.7-0.3C47.1,46.5,47,46.3,47,46c0-0.3,0.1-0.5,0.3-0.7
		c0.4-0.4,1-0.4,1.4,0c0.2,0.2,0.3,0.5,0.3,0.7c0,0.3-0.1,0.5-0.3,0.7C48.5,46.9,48.3,47,48,47z"/>
	<path fill="#448AFF" d="M46,43c-0.3,0-0.5-0.1-0.7-0.3C45.1,42.5,45,42.3,45,42s0.1-0.5,0.3-0.7c0.4-0.4,1-0.4,1.4,0
		c0.2,0.2,0.3,0.5,0.3,0.7s-0.1,0.5-0.3,0.7C46.5,42.9,46.3,43,46,43z"/>
	<path fill="#448AFF" d="M48,39c-0.3,0-0.5-0.1-0.7-0.3C47.1,38.5,47,38.3,47,38c0-0.3,0.1-0.5,0.3-0.7
		c0.4-0.4,1-0.4,1.4,0c0.2,0.2,0.3,0.4,0.3,0.7c0,0.3-0.1,0.5-0.3,0.7C48.5,38.9,48.3,39,48,39z"/>
	<path fill="#448AFF" d="M20,39c-0.3,0-0.5-0.1-0.7-0.3C19.1,38.5,19,38.3,19,38s0.1-0.5,0.3-0.7c0.4-0.4,1-0.4,1.4,0
		c0.2,0.2,0.3,0.5,0.3,0.7s-0.1,0.5-0.3,0.7C20.5,38.9,20.3,39,20,39z"/>
	<path fill="#448AFF" d="M24,39c-0.3,0-0.5-0.1-0.7-0.3C23.1,38.5,23,38.3,23,38c0-0.3,0.1-0.5,0.3-0.7
		c0.4-0.4,1-0.4,1.4,0c0.2,0.2,0.3,0.5,0.3,0.7s-0.1,0.5-0.3,0.7C24.5,38.9,24.3,39,24,39z"/>
	<path fill="#448AFF" d="M28,39c-0.3,0-0.5-0.1-0.7-0.3C27.1,38.5,27,38.3,27,38s0.1-0.5,0.3-0.7c0.4-0.4,1-0.4,1.4,0
		c0.2,0.2,0.3,0.5,0.3,0.7s-0.1,0.5-0.3,0.7C28.5,38.9,28.3,39,28,39z"/>
	<path fill="#448AFF" d="M32,39c-0.3,0-0.5-0.1-0.7-0.3C31.1,38.5,31,38.3,31,38s0.1-0.5,0.3-0.7c0.4-0.4,1-0.4,1.4,0
		c0.2,0.2,0.3,0.5,0.3,0.7s-0.1,0.5-0.3,0.7C32.5,38.9,32.3,39,32,39z"/>
	<path fill="#448AFF" d="M36,39c-0.3,0-0.5-0.1-0.7-0.3C35.1,38.5,35,38.3,35,38c0-0.3,0.1-0.5,0.3-0.7
		c0.4-0.4,1-0.4,1.4,0c0.2,0.2,0.3,0.4,0.3,0.7c0,0.3-0.1,0.5-0.3,0.7C36.5,38.9,36.3,39,36,39z"/>
	<path fill="#448AFF" d="M40,39c-0.3,0-0.5-0.1-0.7-0.3C39.1,38.5,39,38.3,39,38c0-0.3,0.1-0.5,0.3-0.7
		c0.4-0.4,1-0.4,1.4,0c0.2,0.2,0.3,0.5,0.3,0.7s-0.1,0.5-0.3,0.7C40.5,38.9,40.3,39,40,39z"/>
	<path fill="#448AFF" d="M44,39c-0.3,0-0.5-0.1-0.7-0.3C43.1,38.5,43,38.3,43,38s0.1-0.5,0.3-0.7c0.4-0.4,1-0.4,1.4,0
		c0.2,0.2,0.3,0.5,0.3,0.7s-0.1,0.5-0.3,0.7C44.5,38.9,44.3,39,44,39z"/>
	<path fill="#448AFF" d="M18,43c-0.3,0-0.5-0.1-0.7-0.3C17.1,42.5,17,42.3,17,42s0.1-0.5,0.3-0.7c0.4-0.4,1-0.4,1.4,0
		c0.2,0.2,0.3,0.5,0.3,0.7s-0.1,0.5-0.3,0.7C18.5,42.9,18.3,43,18,43z"/>
	<path fill="#448AFF" d="M22,43c-0.3,0-0.5-0.1-0.7-0.3C21.1,42.5,21,42.3,21,42s0.1-0.5,0.3-0.7c0.4-0.4,1-0.4,1.4,0
		c0.2,0.2,0.3,0.4,0.3,0.7c0,0.3-0.1,0.5-0.3,0.7C22.5,42.9,22.3,43,22,43z"/>
	<path fill="#448AFF" d="M26,43c-0.3,0-0.5-0.1-0.7-0.3C25.1,42.5,25,42.3,25,42c0-0.3,0.1-0.5,0.3-0.7
		c0.4-0.4,1-0.4,1.4,0c0.2,0.2,0.3,0.5,0.3,0.7s-0.1,0.5-0.3,0.7C26.5,42.9,26.3,43,26,43z"/>
	<path fill="#448AFF" d="M30,43c-0.3,0-0.5-0.1-0.7-0.3C29.1,42.5,29,42.3,29,42c0-0.3,0.1-0.5,0.3-0.7
		c0.4-0.4,1-0.4,1.4,0c0.2,0.2,0.3,0.5,0.3,0.7s-0.1,0.5-0.3,0.7C30.5,42.9,30.3,43,30,43z"/>
	<path fill="#448AFF" d="M34,43c-0.3,0-0.5-0.1-0.7-0.3C33.1,42.5,33,42.3,33,42s0.1-0.5,0.3-0.7c0.4-0.4,1-0.4,1.4,0
		c0.2,0.2,0.3,0.4,0.3,0.7c0,0.3-0.1,0.5-0.3,0.7C34.5,42.9,34.3,43,34,43z"/>
	<path fill="#448AFF" d="M38,43c-0.3,0-0.5-0.1-0.7-0.3C37.1,42.5,37,42.3,37,42s0.1-0.5,0.3-0.7c0.4-0.4,1-0.4,1.4,0
		c0.2,0.2,0.3,0.5,0.3,0.7s-0.1,0.5-0.3,0.7C38.5,42.9,38.3,43,38,43z"/>
	<path fill="#448AFF" d="M42,43c-0.3,0-0.5-0.1-0.7-0.3C41.1,42.5,41,42.3,41,42c0-0.3,0.1-0.5,0.3-0.7
		c0.4-0.4,1-0.4,1.4,0c0.2,0.2,0.3,0.5,0.3,0.7s-0.1,0.5-0.3,0.7C42.5,42.9,42.3,43,42,43z"/>
	<path fill="#448AFF" d="M16,47c-0.3,0-0.5-0.1-0.7-0.3C15.1,46.5,15,46.3,15,46c0-0.3,0.1-0.5,0.3-0.7
		c0.4-0.4,1-0.4,1.4,0c0.2,0.2,0.3,0.4,0.3,0.7c0,0.3-0.1,0.5-0.3,0.7C16.5,46.9,16.3,47,16,47z"/>
	<path fill="#448AFF" d="M20,47c-0.3,0-0.5-0.1-0.7-0.3C19.1,46.5,19,46.3,19,46c0-0.3,0.1-0.5,0.3-0.7
		c0.4-0.4,1-0.4,1.4,0c0.2,0.2,0.3,0.4,0.3,0.7c0,0.3-0.1,0.5-0.3,0.7C20.5,46.9,20.3,47,20,47z"/>
	<path fill="#448AFF" d="M36,47H24c-0.6,0-1-0.4-1-1s0.4-1,1-1h12c0.6,0,1,0.4,1,1S36.6,47,36,47z"/>
	<path fill="#448AFF" d="M40,47c-0.3,0-0.5-0.1-0.7-0.3C39.1,46.5,39,46.3,39,46c0-0.3,0.1-0.5,0.3-0.7
		c0.4-0.4,1-0.4,1.4,0c0.2,0.2,0.3,0.4,0.3,0.7c0,0.3-0.1,0.5-0.3,0.7C40.5,46.9,40.3,47,40,47z"/>
	<path fill="#448AFF" d="M44,47c-0.3,0-0.5-0.1-0.7-0.3C43.1,46.5,43,46.3,43,46c0-0.3,0.1-0.5,0.3-0.7
		c0.4-0.4,1-0.4,1.4,0c0.2,0.2,0.3,0.4,0.3,0.7c0,0.3-0.1,0.5-0.3,0.7C44.5,46.9,44.3,47,44,47z"/>
	<path fill="#448AFF" d="M58,55H2c-0.3,0-0.6-0.1-0.8-0.4S1,54.1,1,53.8l4-20C5.1,33.3,5.5,33,6,33h48
		c0.5,0,0.9,0.3,1,0.8l4,20c0.1,0.3,0,0.6-0.2,0.8C58.6,54.9,58.3,55,58,55z M3.2,53h53.6l-3.6-18H6.8L3.2,53z"/>
	<path fill="#448AFF" d="M54,35H6c-0.6,0-1-0.4-1-1V4c0-1.7,1.3-3,3-3h44c1.7,0,3,1.3,3,3v30C55,34.6,54.6,35,54,35z
		 M7,33h46V4c0-0.6-0.4-1-1-1H8C7.4,3,7,3.4,7,4V33z"/>
	<path fill="#448AFF" d="M50,31H10c-0.6,0-1-0.4-1-1V6c0-0.6,0.4-1,1-1h40c0.6,0,1,0.4,1,1v24C51,30.6,50.6,31,50,31z
		 M11,29h38V7H11V29z"/>
	<path fill="#448AFF" d="M56,59H4c-1.7,0-3-1.3-3-3v-2c0-0.6,0.4-1,1-1h56c0.6,0,1,0.4,1,1v2C59,57.7,57.7,59,56,59z
		 M3,55v1c0,0.6,0.4,1,1,1h52c0.6,0,1-0.4,1-1v-1H3z"/>
	<path fill="#448AFF" d="M36,55H24c-0.3,0-0.6-0.1-0.8-0.4C23,54.4,23,54.1,23,53.8l1-4c0.1-0.4,0.5-0.8,1-0.8h10
		c0.5,0,0.9,0.3,1,0.8l1,4c0.1,0.3,0,0.6-0.2,0.9C36.6,54.9,36.3,55,36,55z M25.3,53h9.4l-0.5-2h-8.4L25.3,53z"/>
</svg>
