<svg version="1.1" xmlns="http://www.w3.org/2000/svg" xmlns:xlink="http://www.w3.org/1999/xlink" x="0px" y="0px"
	 viewBox="0 0 60 60" style="enable-background:new 0 0 60 60;" xml:space="preserve">
	<path fill="#F1B565" d="M12,59c-1.7,0-3-1.3-3-3V12c0-1.7,1.3-3,3-3h36c1.7,0,3,1.3,3,3v44c0,1.7-1.3,3-3,3H12z"/>
	<path fill="#383128" d="M48,10c1.1,0,2,0.9,2,2v44c0,1.1-0.9,2-2,2H12c-1.1,0-2-0.9-2-2V12c0-1.1,0.9-2,2-2H48 M48,8H12
		c-2.2,0-4,1.8-4,4v44c0,2.2,1.8,4,4,4h36c2.2,0,4-1.8,4-4V12C52,9.8,50.2,8,48,8L48,8z"/>
<rect x="13" y="13" fill="#FFFFFF" width="34" height="42"/>
<path fill="#232E38" d="M47,56H13c-0.6,0-1-0.4-1-1V13c0-0.6,0.4-1,1-1h34c0.6,0,1,0.4,1,1v42C48,55.6,47.6,56,47,56z
	 M14,54h32V14H14V54z"/>
<path fill="#DAE3E6" d="M41,15H19V9c0-1.1,0.9-2,2-2h18c1.1,0,2,0.9,2,2V15z"/>
<path fill="#232E38" d="M41,16H19c-0.6,0-1-0.4-1-1V9c0-1.7,1.3-3,3-3h18c1.7,0,3,1.3,3,3v6C42,15.6,41.6,16,41,16z
	 M20,14h20V9c0-0.6-0.4-1-1-1H21c-0.6,0-1,0.4-1,1V14z"/>
<path fill="#DAE3E6" d="M35,7H25V6c0-2.8,2.2-5,5-5l0,0c2.8,0,5,2.2,5,5V7z"/>
<path fill="#232E38" d="M35,8H25c-0.6,0-1-0.4-1-1V6c0-3.3,2.7-6,6-6s6,2.7,6,6v1C36,7.6,35.6,8,35,8z M26,6h8
	c0-2.2-1.8-4-4-4C27.8,2,26,3.8,26,6z"/>
<path fill="#232E38" d="M30,5c-0.3,0-0.5-0.1-0.7-0.3C29.1,4.5,29,4.3,29,4c0-0.3,0.1-0.5,0.3-0.7c0.4-0.4,1-0.4,1.4,0
	C30.9,3.5,31,3.7,31,4c0,0.3-0.1,0.5-0.3,0.7C30.5,4.9,30.3,5,30,5z"/>
<path fill="#6EDC23" d="M21,28c-0.3,0-0.5-0.1-0.7-0.3l-2-2c-0.4-0.4-0.4-1,0-1.4s1-0.4,1.4,0l1.1,1.1l2.3-3.9
	c0.3-0.5,0.9-0.6,1.4-0.3c0.5,0.3,0.6,0.9,0.3,1.4l-3,5c-0.2,0.3-0.4,0.4-0.7,0.5C21.1,28,21,28,21,28z"/>
<path fill="#5B6875" d="M41,26H29c-0.6,0-1-0.4-1-1s0.4-1,1-1h12c0.6,0,1,0.4,1,1S41.6,26,41,26z"/>
<path fill="#6EDC23" d="M21,38c-0.3,0-0.5-0.1-0.7-0.3l-2-2c-0.4-0.4-0.4-1,0-1.4s1-0.4,1.4,0l1.1,1.1l2.3-3.9
	c0.3-0.5,0.9-0.6,1.4-0.3c0.5,0.3,0.6,0.9,0.3,1.4l-3,5c-0.2,0.3-0.4,0.4-0.7,0.5C21.1,38,21,38,21,38z"/>
<path fill="#5B6875" d="M41,36H29c-0.6,0-1-0.4-1-1s0.4-1,1-1h12c0.6,0,1,0.4,1,1S41.6,36,41,36z"/>
<path fill="#6EDC23" d="M21,48c-0.3,0-0.5-0.1-0.7-0.3l-2-2c-0.4-0.4-0.4-1,0-1.4s1-0.4,1.4,0l1.1,1.1l2.3-3.9
	c0.3-0.5,0.9-0.6,1.4-0.3c0.5,0.3,0.6,0.9,0.3,1.4l-3,5c-0.2,0.3-0.4,0.4-0.7,0.5C21.1,48,21,48,21,48z"/>
<path fill="#5B6875" d="M41,46H29c-0.6,0-1-0.4-1-1s0.4-1,1-1h12c0.6,0,1,0.4,1,1S41.6,46,41,46z"/>
</svg>
