<svg version="1.1" xmlns="http://www.w3.org/2000/svg" xmlns:xlink="http://www.w3.org/1999/xlink" x="0px" y="0px"
	 viewBox="0 0 60 60" style="enable-background:new 0 0 60 60;" xml:space="preserve">
	<path fill="#FFFFFF" d="M53,49H7c-2.2,0-4-1.8-4-4V15c0-2.2,1.8-4,4-4h46c2.2,0,4,1.8,4,4v30C57,47.2,55.2,49,53,49z"
		/>
	<path fill="#212A35" d="M53,50H7c-2.8,0-5-2.2-5-5V15c0-2.8,2.2-5,5-5h46c2.8,0,5,2.2,5,5v30C58,47.8,55.8,50,53,50z
		 M7,12c-1.7,0-3,1.3-3,3v30c0,1.7,1.3,3,3,3h46c1.7,0,3-1.3,3-3V15c0-1.7-1.3-3-3-3H7z"/>
	<path fill="#FFFFFF" d="M29,41H11c-1.1,0-2-0.9-2-2V21c0-1.1,0.9-2,2-2h18c1.1,0,2,0.9,2,2v18C31,40.1,30.1,41,29,41z"
		/>
	<path fill="#212A35" d="M29,42H11c-1.7,0-3-1.3-3-3V21c0-1.7,1.3-3,3-3h18c1.7,0,3,1.3,3,3v18C32,40.7,30.7,42,29,42z
		 M11,20c-0.6,0-1,0.4-1,1v18c0,0.6,0.4,1,1,1h18c0.6,0,1-0.4,1-1V21c0-0.6-0.4-1-1-1H11z"/>
	<path fill="#9E84E4" d="M30,40.7l0-0.1c0,0-0.7-1.1-2-2.1c-0.8-0.6-2.7-1.6-4.8-2c-0.3-0.1-0.5-0.3-0.5-0.6
		c0-0.3,0-0.7,0-1.1c0-0.9,1-1.9,1.1-3.1c0.3-0.7,0.5-1.4,0.5-2c0-0.4-0.1-0.6-0.2-0.7c0.1-0.4,0.2-0.9,0.2-1.4c0.4-2-0.3-3.4-2-4
		c-0.6-0.2-3.2-0.7-4.1-1.6c-0.3-0.3-0.1,1.6-0.4,1.7c-1.7,0.8-2.3,1.9-2,3.9c0.1,0.5,0.2,1,0.2,1.4c-0.2,0.2-0.2,0.4-0.2,0.7
		c0,0.5,0.2,1.3,0.5,2c0.1,1.2,1.1,2.2,1.1,3.1c0,0.4,0,0.7,0,1.1c0,0.3-0.2,0.6-0.5,0.6c-2.1,0.4-3.7,1.3-4.8,2c-1.7,1-2,2.1-2,2.1
		l0,0.1c0.3,0.2,0.6,0.3,1,0.3h18C29.4,41,29.7,40.9,30,40.7z"/>
	<path fill="#2A2135" d="M29,42H11c-0.5,0-1-0.1-1.5-0.4c-0.3-0.2-0.5-0.4-0.5-0.7l0-0.1c0-0.1,0-0.3,0-0.4
		c0-0.1,0.5-1.5,2.4-2.7c1.1-0.7,2.8-1.6,4.9-2.1c0-0.3,0-0.5,0-0.8c0-0.2-0.2-0.6-0.4-0.9c-0.3-0.5-0.6-1.2-0.7-1.9
		c-0.4-0.8-0.6-1.6-0.6-2.2c0-0.4,0.1-0.7,0.2-1c0-0.1,0-0.3-0.1-0.4l-0.1-0.6C14.3,25.6,15,24,16.9,23c0-0.1,0-0.2,0-0.3
		c0-0.7,0.1-1.4,0.8-1.6c0.4-0.1,0.9,0,1.2,0.2c0.5,0.5,2.2,0.9,3,1.1c0.3,0.1,0.6,0.2,0.8,0.2c2.2,0.8,3.1,2.6,2.7,5.1l-0.1,0.6
		c0,0.1,0,0.3-0.1,0.4c0.1,0.3,0.2,0.6,0.2,1c0,0.6-0.2,1.4-0.6,2.2c-0.1,0.8-0.4,1.4-0.7,2c-0.2,0.3-0.4,0.7-0.4,0.9
		c0,0.3,0,0.5,0,0.8c2.2,0.5,4.2,1.5,4.9,2.1c1.4,1.1,2.2,2.3,2.2,2.4c0.1,0.1,0.1,0.3,0.1,0.5l0,0.1c0,0.4-0.2,0.7-0.5,0.9
		C30,41.9,29.5,42,29,42z M11.6,40h16.6c-0.2-0.2-0.5-0.5-0.8-0.7c-0.7-0.5-2.5-1.5-4.4-1.8c-0.8-0.1-1.4-0.9-1.3-1.7
		c0-0.3,0-0.7,0-1c0-0.6,0.3-1.2,0.6-1.8c0.2-0.5,0.5-0.9,0.5-1.4c0-0.1,0-0.3,0.1-0.4c0.3-0.6,0.4-1.1,0.4-1.5c0,0,0-0.1,0-0.1
		c-0.2-0.2-0.3-0.5-0.2-0.8c0-0.2,0.1-0.5,0.1-0.7l0.1-0.7c0.4-2-0.6-2.6-1.4-2.8c-0.1,0-0.3-0.1-0.6-0.2c-0.9-0.2-1.7-0.5-2.5-0.8
		c-0.1,0.4-0.3,0.8-0.7,1c-1.3,0.6-1.7,1.3-1.4,2.8l0.1,0.7c0,0.3,0.1,0.5,0.1,0.7c0.1,0.3,0,0.6-0.2,0.8c0,0,0,0.1,0,0.1
		c0,0.4,0.2,1,0.4,1.5c0.1,0.1,0.1,0.3,0.1,0.4c0,0.4,0.2,0.8,0.5,1.3c0.3,0.6,0.6,1.1,0.6,1.8c0,0.4,0,0.7,0,1
		c0,0.8-0.5,1.5-1.3,1.7c-1.9,0.3-3.5,1.2-4.5,1.9C12.2,39.6,11.9,39.8,11.6,40z"/>
	<path fill="#212A35" d="M51,38H35c-0.6,0-1-0.4-1-1s0.4-1,1-1h16c0.6,0,1,0.4,1,1S51.6,38,51,38z"/>
	<path fill="#212A35" d="M38,34h-3c-0.6,0-1-0.4-1-1s0.4-1,1-1h3c0.6,0,1,0.4,1,1S38.6,34,38,34z"/>
	<path fill="#212A35" d="M46,34h-4c-0.6,0-1-0.4-1-1s0.4-1,1-1h4c0.6,0,1,0.4,1,1S46.6,34,46,34z"/>
	<path fill="#212A35" d="M51,26H35c-0.6,0-1-0.4-1-1s0.4-1,1-1h16c0.6,0,1,0.4,1,1S51.6,26,51,26z"/>
	<path fill="#212A35" d="M44,22h-9c-0.6,0-1-0.4-1-1s0.4-1,1-1h9c0.6,0,1,0.4,1,1S44.6,22,44,22z"/>
</svg>
