<svg version="1.1" xmlns="http://www.w3.org/2000/svg" xmlns:xlink="http://www.w3.org/1999/xlink" x="0px" y="0px"
	 viewBox="0 0 90 90" style="enable-background:new 0 0 90 90;" xml:space="preserve">
<path fill="#FFFFFF" d="M58.6,71.6l4.3-4.3c1.7-1.7,1.5-4.5-0.4-6l-6.7-5.2c-1.5-1.1-3.5-1.1-4.9,0l-1.5,1.2
	c-1.6,1.3-3.9,1.1-5.3-0.3l-12-12c-1.4-1.4-1.6-3.7-0.3-5.3l1.2-1.5c1.1-1.4,1.2-3.5,0-4.9l-5.2-6.7c-1.5-1.9-4.3-2.1-6-0.4
	l-4.3,4.3c-2.9,2.9-2.9,11.2,13.5,27.6C47.4,74.5,55.9,74.3,58.6,71.6z"/>
<path fill="#232E38" d="M54.5,73.9c-4.3,0-11.9-2.8-24.3-15.1C10.5,39.1,15,31.6,16.8,29.8l4.3-4.3c1-1,2.4-1.5,3.9-1.5
	c1.4,0.1,2.8,0.8,3.6,1.9l5.2,6.7c1.4,1.8,1.4,4.4,0,6.2l-1.2,1.5c-0.9,1.2-0.8,2.9,0.2,4l12,12c1.1,1.1,2.8,1.2,4,0.2l1.5-1.2
	c1.8-1.4,4.4-1.4,6.2,0l6.7,5.2c1.1,0.9,1.8,2.2,1.9,3.6c0.1,1.4-0.4,2.8-1.5,3.8l-4.3,4.3C58.8,72.8,57.3,73.9,54.5,73.9z
	 M24.6,26.1c-0.8,0-1.6,0.3-2.1,0.9l-4.3,4.3c-2.9,2.9-1.2,11.5,13.5,26.2C47.3,73,55.5,73.2,57.9,70.9l4.3-4.3
	c0.6-0.6,0.9-1.5,0.9-2.3c-0.1-0.9-0.5-1.7-1.2-2.2l-6.7-5.2c-1.1-0.9-2.6-0.8-3.7,0L50,58.1c-2,1.6-4.8,1.4-6.6-0.4l-12-12
	c-1.8-1.8-2-4.7-0.4-6.6l1.2-1.5c0.9-1.1,0.9-2.6,0-3.7L27,27.2c-0.5-0.7-1.3-1.1-2.2-1.2C24.7,26.1,24.7,26.1,24.6,26.1z"/>
<path fill="#76D03B" d="M42,23v12c0,2.2,1.8,4,4,4h2v6l6-6h12c2.2,0,4-1.8,4-4V23c0-2.2-1.8-4-4-4H46
	C43.8,19,42,20.8,42,23z"/>
<path fill="#2B3F15" d="M48,46c-0.1,0-0.3,0-0.4-0.1C47.2,45.8,47,45.4,47,45v-5h-1c-2.8,0-5-2.2-5-5V23
	c0-2.8,2.2-5,5-5h20c2.8,0,5,2.2,5,5v12c0,2.8-2.2,5-5,5H54.4l-5.7,5.7C48.5,45.9,48.3,46,48,46z M46,20c-1.7,0-3,1.3-3,3v12
	c0,1.7,1.3,3,3,3h2c0.6,0,1,0.4,1,1v3.6l4.3-4.3c0.2-0.2,0.4-0.3,0.7-0.3h12c1.7,0,3-1.3,3-3V23c0-1.7-1.3-3-3-3H46z"/>
<path fill="#2B3F15" d="M62,30c-0.3,0-0.5-0.1-0.7-0.3C61.1,29.5,61,29.3,61,29c0-0.3,0.1-0.5,0.3-0.7
	c0.4-0.4,1-0.4,1.4,0c0.2,0.2,0.3,0.4,0.3,0.7c0,0.3-0.1,0.5-0.3,0.7C62.5,29.9,62.3,30,62,30z"/>
<path fill="#2B3F15" d="M56,30c-0.3,0-0.5-0.1-0.7-0.3C55.1,29.5,55,29.3,55,29c0-0.3,0.1-0.5,0.3-0.7
	c0.4-0.4,1-0.4,1.4,0c0.2,0.2,0.3,0.4,0.3,0.7c0,0.3-0.1,0.5-0.3,0.7C56.5,29.9,56.3,30,56,30z"/>
<path fill="#2B3F15" d="M50,30c-0.3,0-0.5-0.1-0.7-0.3C49.1,29.5,49,29.3,49,29c0-0.3,0.1-0.5,0.3-0.7
	c0.4-0.4,1-0.4,1.4,0c0.2,0.2,0.3,0.4,0.3,0.7c0,0.3-0.1,0.5-0.3,0.7C50.5,29.9,50.3,30,50,30z"/>
</svg>
