<svg version="1.1" xmlns="http://www.w3.org/2000/svg" xmlns:xlink="http://www.w3.org/1999/xlink" x="0px" y="0px"
	 viewBox="0 0 60 60" style="enable-background:new 0 0 60 60;" xml:space="preserve">
<path fill="#9F85E5" d="M50.5,51.8c1.4,1.2,0.8,3.6-1,4c-4.3,0.9-12.1,2.1-22.1,2.1c-10.1,0-17.7-1.2-22-2.1c-1.9-0.4-2.5-2.7-1-4
	c2.9-2.5,7.1-4.4,12.9-5.4c0.1,0,0.1,0,0.1,0h0.3c0.4,1.5,4.4,4.9,9.7,4.9c5.4,0,9-3.3,9.7-4.9l0-0.1c0.1,0,0.2,0.1,0.3,0.1
	C43.4,47.3,47.6,49.3,50.5,51.8z"/>
<path fill="#EEDBD1" d="M37.2,46.3L37.2,46.3c-0.8,1.7-4.4,5-9.7,5c-5.4,0-9.3-3.4-9.7-4.9h-0.3c1-0.4,2.2-2.7,1.4-5.4
	c3.5,3.1,5.9,4.5,7.2,4.5c0.1,0,0.6-0.3,1.5-0.3c0.9,0,1.5,0.3,1.6,0.3c0.5,0,4.3-1.9,6.8-4.5C35.3,43.6,36.3,45.8,37.2,46.3z"/>
<path fill="#757575" d="M34.4,7.3c4.8,1.7,8.4,6,7.7,11.8c-0.1,1.2-0.4,2-0.6,2.5l0,0c0.1-2-1.8-2.7-3-2.3c-5,1.8-9.3-3-15.6,1.8
	c-0.9-1.5-1.1-4.5,1.1-6.3c-2.9,0.3-4.2,2.1-6.5,3.2c-2.3,1.1-3.7,1.2-3.7,3.1l-0.1,0c-0.4-0.5-0.7-0.8-0.8-1.3
	c-1.5-6.4,2.1-10,7.3-12.3c1-0.4,0.2-6.3,1.3-5.3C24.5,5.2,32.5,6.6,34.4,7.3z"/>
<path fill="#EEDBD1" d="M41.4,21.6L41.4,21.6c-0.2,0.4-0.3,0.7-0.4,1c0,0-0.7-0.5-0.8,0.1c0.5,0.5,1.5,1.2,1.5,2.4
	c0,1.7-0.4,5.1-2.4,6.2C39.1,35,35.9,41,35.9,41c-2.5,2.6-6.3,4.5-6.8,4.5c-0.1,0-0.7-0.3-1.6-0.3c-0.9,0-1.4,0.3-1.5,0.3
	c-1.3,0-3.8-1.4-7.2-4.5c0,0-3.2-5.9-3.4-9.7c-2-1-2.4-4.5-2.4-6.2c0-1.1,1-1.9,1.5-2.4c-0.3-0.7-0.5-1.1-0.8-1.5l0.1,0
	c-0.1-1.9,1.4-1.9,3.7-3.1c2.3-1.1,3.6-2.9,6.5-3.2c-2.2,1.8-2,4.8-1.1,6.3c6.3-4.8,10.6,0,15.6-1.8C39.7,18.8,41.6,19.6,41.4,21.6z
	"/>
	<path fill="#383128" d="M27.4,58.8c-10,0-17.6-1.1-22.2-2.1c-1.2-0.3-2.2-1.2-2.5-2.4s0.1-2.5,1.1-3.3
		c3.3-2.8,7.8-4.7,13.3-5.6c0.4-0.2,1.4-2,0.7-4.1c-0.2-0.5,0.1-1.1,0.7-1.2c0.5-0.2,1.1,0.1,1.2,0.7c0.6,2.2,0.1,4.2-0.6,5.3
		c-0.5,0.8-1.1,1.3-1.7,1.4c-5.2,0.9-9.3,2.6-12.4,5.2c-0.4,0.3-0.5,0.8-0.4,1.3s0.5,0.8,1,0.9c4.5,0.9,11.9,2,21.8,2
		c9,0,16.2-1,20.7-1.8c0.5-0.1,1.1,0.3,1.2,0.8c0.1,0.5-0.3,1.1-0.8,1.2C43.9,57.8,36.6,58.8,27.4,58.8z"/>
	<path fill="#383128" d="M22.5,28h-0.2c-0.6,0-1-0.4-1-1s0.4-1,1-1h0.2c0.6,0,1,0.4,1,1S23.1,28,22.5,28z"/>
	<path fill="#383128" d="M32.5,28h-0.2c-0.6,0-1-0.4-1-1s0.4-1,1-1h0.2c0.6,0,1,0.4,1,1S33.1,28,32.5,28z"/>
	<path fill="#383128" d="M26.1,46.5c-2.2,0-5.5-2.6-7.9-4.8c-0.1-0.1-0.2-0.2-0.2-0.3c-0.1-0.2-3-5.7-3.4-9.6
		c-2.3-1.7-2.4-5.9-2.4-6.8c0-1.2,0.7-2.1,1.3-2.6c-0.2-0.5-0.5-0.8-0.7-1c-0.3-0.3-0.5-0.7-0.7-1.3c-1.4-5.9,1.1-10.4,7.6-13.4
		c0.1-0.4,0.2-1.6,0.2-2.3c0.1-1.8,0.1-2.9,1.1-3.3c0.2-0.1,0.8-0.2,1.3,0.3c2.1,2,7.2,3.3,10.3,4.1c1,0.3,1.8,0.5,2.3,0.6
		c5.7,2,9,7.1,8.3,12.9c-0.2,1.7-0.6,2.5-0.9,3.1c-0.1,0.2-0.2,0.3-0.2,0.4c0,0.1-0.1,0.2-0.1,0.3c0.4,0.5,0.8,1.2,0.8,2
		c0,0.7-0.1,3.2-1.1,5.2c-0.3,0.5-0.9,0.7-1.4,0.4c-0.5-0.3-0.7-0.9-0.4-1.4c0.7-1.2,0.9-3,0.9-4.2c0-0.5-0.5-1-0.9-1.4
		c-0.1-0.1-0.2-0.2-0.3-0.2c-0.2-0.2-0.3-0.6-0.3-0.9c0.1-0.5,0.4-0.9,0.8-1.1c0.1-0.1,0.3-0.1,0.4-0.1c0.2-0.5,0.5-1.1,0.6-2.3
		c0.7-5.9-3.2-9.4-7-10.8c-0.4-0.1-1.2-0.3-2.1-0.6c-2.9-0.7-7.4-1.9-10.2-3.8c0,0.3,0,0.5,0,0.8c-0.1,1.9-0.2,3.4-1.2,3.9
		c-5.8,2.6-7.9,6.1-6.7,11.2c0,0.1,0.1,0.2,0.3,0.5c0.3,0.4,0.8,1,1.2,2.2c0.1,0.4,0,0.8-0.2,1.1c-0.1,0.1-0.2,0.2-0.3,0.2
		c-0.4,0.4-0.9,0.9-0.9,1.4c0,1.8,0.5,4.6,1.9,5.3c0.3,0.2,0.5,0.5,0.6,0.8c0.1,3.2,2.7,8.2,3.2,9.2c3.9,3.5,5.7,4,6.3,4.1
		c0.3-0.1,0.9-0.3,1.7-0.3c0.5,0,1.1,0.1,1.6,0.3c0.5,0.2,0.8,0.8,0.6,1.3c-0.2,0.5-0.8,0.8-1.3,0.6c-0.3-0.1-0.6-0.2-0.9-0.2
		c-0.5,0-0.8,0.1-1,0.2C26.5,46.4,26.3,46.5,26.1,46.5z"/>
	<path fill="#383128" d="M41.5,22.6C41.5,22.6,41.5,22.5,41.5,22.6c-0.6,0-1-0.5-1-1.1c0-0.5-0.1-0.8-0.4-1.1
		c-0.3-0.3-0.9-0.3-1.3-0.2c-2.3,0.8-4.4,0.4-6.4,0.1c-2.8-0.5-5.5-1-8.9,1.6c-0.2,0.2-0.5,0.2-0.8,0.2c-0.3-0.1-0.5-0.2-0.7-0.5
		c-0.7-1.2-1.1-3.1-0.5-4.9c-0.5,0.3-0.9,0.6-1.4,0.9c-0.7,0.5-1.4,0.9-2.2,1.3c-0.5,0.3-1,0.5-1.4,0.7c-1.6,0.7-1.7,0.8-1.7,1.5
		c0,0.6-0.4,1-1,1c-0.6,0-1-0.4-1-1c0-2.1,1.4-2.8,2.9-3.4c0.4-0.2,0.8-0.4,1.3-0.6c0.7-0.3,1.3-0.8,1.9-1.2
		c1.3-0.9,2.7-1.9,4.9-2.1c0.4,0,0.9,0.2,1,0.6c0.2,0.4,0.1,0.9-0.3,1.2c-1.3,1.1-1.5,2.7-1.3,3.9c3.6-2.3,6.7-1.7,9.4-1.2
		c1.9,0.3,3.6,0.7,5.4,0c1-0.4,2.3-0.2,3.2,0.5c0.8,0.6,1.3,1.6,1.2,2.8C42.5,22.1,42,22.6,41.5,22.6z"/>
	<path fill="#383128" d="M27.5,52.2c-5.9,0-10.1-3.7-10.7-5.6c-0.1-0.5,0.2-1.1,0.7-1.2c0.5-0.1,1.1,0.2,1.2,0.7
		c0.3,1.1,3.8,4.2,8.8,4.2c1,0,1.9-0.1,2.8-0.3c0.2,0,0.4-0.1,0.5-0.1c0.5-0.2,1.1,0.1,1.2,0.7s-0.1,1.1-0.7,1.2
		c-0.2,0.1-0.4,0.1-0.6,0.2C29.8,52.1,28.6,52.2,27.5,52.2z"/>
<path fill="#232E38" d="M56.4,58.8c-0.3,0-0.5-0.1-0.7-0.3l-8.6-8.6c-0.4-0.4-0.4-1,0-1.4s1-0.4,1.4,0l8.6,8.6
	c0.4,0.4,0.4,1,0,1.4C56.9,58.7,56.7,58.8,56.4,58.8z"/>
<circle fill="#FFFFFF" cx="41.4" cy="42.8" r="9"/>
<path fill="#232E38" d="M41.4,52.8c-5.5,0-10-4.5-10-10s4.5-10,10-10s10,4.5,10,10S46.9,52.8,41.4,52.8z M41.4,34.8
	c-4.4,0-8,3.6-8,8s3.6,8,8,8s8-3.6,8-8S45.8,34.8,41.4,34.8z"/>
<path fill="#383128" d="M27,39.5c-2.5,0-3.8-1-4-1.2c-0.4-0.3-0.5-1-0.1-1.4c0.3-0.4,1-0.5,1.4-0.1c0,0,0.9,0.7,2.7,0.7
	s2.7-0.7,2.7-0.7c0.4-0.3,1.1-0.3,1.4,0.2s0.3,1-0.1,1.4C30.8,38.5,29.5,39.5,27,39.5z"/>
</svg>
