<svg version="1.1" xmlns="http://www.w3.org/2000/svg" xmlns:xlink="http://www.w3.org/1999/xlink" x="0px" y="0px"
	 viewBox="0 0 60 60" style="enable-background:new 0 0 60 60;" xml:space="preserve">
<path fill="#EFEAE1" d="M47,19.8v18h-4l-3.6-6.3l-4.8-8.6c-0.4-0.7-1.1-1.1-1.8-1.1c-0.5,0-1,0.2-1.4,0.5l-4,3.4
	c-1.4,1.2-3.5,1.3-5,0.2L22,25.6c-0.6-0.4-0.7-1.2-0.2-1.8l4.6-5.6l1.7-2.1c1.2-1.5,3-2.3,4.9-2.3h3.3c1.1,0,2.2,0.3,3.1,0.9
	L47,19.8z"/>
<path fill="#EFEAE1" d="M39.5,31.5c0.2,0.3,1.6,3,3.8,7.2c0.6,1.1,0.5,2.5-0.9,3.5c-1.2,0.8-3,0.7-3.6-0.3l0,0
	c-0.2,0.8-1.2,1.6-1.7,1.9c-1.1,0.6-2.4,0.6-3.4-0.1l-0.1,0.1c-0.6,1-0.9,1.2-1.5,1.5c-1.4,0.8-3.4,0.9-4.3-0.5l-0.1,0.1
	c-0.3,0.3-0.6,0.5-1.2,0.8c-1.5,0.8-4.1,0.7-5.7-1.8c-2.1-3.3-4-7.2-4-7.2h-3.3H13v-17h6l2.3-1.3c0.9-0.5,1.9-0.8,2.9-0.8h1.6
	l0.5,0.4l-4.6,5.6c-0.4,0.5-0.3,1.3,0.2,1.8l0.4,0.3c1.5,1.1,3.6,1.1,5-0.2l4-3.4c0.4-0.3,0.9-0.5,1.4-0.5c0.8,0,1.5,0.4,1.8,1.1
	L39.5,31.5z"/>
	<path fill="#383128" d="M29.9,46.9c-1.2,0-2.4-0.5-3.1-1.5l-2.6-4.5c-0.3-0.5-0.1-1.1,0.4-1.4c0.5-0.3,1.1-0.1,1.4,0.4
		l2.6,4.5c0.5,0.8,1.9,0.7,3,0.1l0.2-0.1c0.3-0.1,0.4-0.2,0.6-0.5c-0.1-0.1-0.1-0.2-0.2-0.3l-2.9-5.1c-0.3-0.5-0.1-1.1,0.4-1.4
		c0.5-0.3,1.1-0.1,1.4,0.4l2.8,5c0.5,0.8,1.8,0.9,2.6,0.4c0.4-0.2,0.9-0.7,1.1-1L34.3,36c-0.3-0.5-0.1-1.1,0.4-1.4
		c0.5-0.3,1.1-0.1,1.4,0.4l3.5,6.4c0.2,0.3,1.3,0.5,2.2-0.1c1-0.6,0.9-1.5,0.5-2.1C40,34.7,38.6,32,38.6,32
		c-0.3-0.5-0.1-1.1,0.4-1.4c0.5-0.3,1.1-0.1,1.4,0.4c0,0,1.5,2.8,3.8,7.3c0.9,1.8,0.4,3.7-1.3,4.7c-1.1,0.7-2.7,0.9-3.9,0.4
		c-0.5,0.6-1.2,1.1-1.5,1.3c-1.1,0.6-2.4,0.7-3.5,0.3c-0.4,0.6-0.8,0.8-1.3,1.1l-0.1,0.1C31.7,46.6,30.8,46.9,29.9,46.9z"/>
	<path fill="#383128" d="M24.6,47.2c-1.7,0-3.5-0.8-4.7-2.7c-1.6-2.6-3.2-5.5-3.8-6.7h-2.7c-0.6,0-1-0.4-1-1s0.4-1,1-1
		h3.3c0.4,0,0.7,0.2,0.9,0.5c0,0,2,3.9,4,7.1c1.3,2,3.3,1.9,4.3,1.4c0.6-0.3,0.7-0.4,0.9-0.6c0.4-0.4,1-0.4,1.4-0.1s0.4,1,0.1,1.4
		c-0.4,0.4-0.8,0.7-1.5,1C26.3,47,25.5,47.2,24.6,47.2z"/>
	<path fill="#383128" d="M19,20.8h-6c-0.6,0-1-0.4-1-1s0.4-1,1-1h5.7l2.1-1.1c1-0.6,2.2-0.9,3.4-0.9h1.6
		c0.6,0,1,0.4,1,1s-0.4,1-1,1h-1.6c-0.9,0-1.7,0.2-2.5,0.6l-2.3,1.2C19.3,20.8,19.2,20.8,19,20.8z"/>
	<path fill="#383128" d="M47,38.8h-4c-0.4,0-0.7-0.2-0.9-0.5l-8.4-14.9c-0.3-0.6-1.2-0.7-1.7-0.3l-4,3.4
		c-1.8,1.5-4.4,1.6-6.3,0.2l-0.4-0.3c-0.5-0.4-0.8-0.9-0.9-1.5c-0.1-0.6,0.1-1.2,0.5-1.7l6.3-7.7c1.4-1.7,3.5-2.7,5.7-2.7h3.3
		c1.3,0,2.5,0.4,3.6,1.1l7.6,5.1c0.5,0.3,0.6,0.9,0.3,1.4c-0.3,0.5-0.9,0.6-1.4,0.3l-7.6-5.1c-0.7-0.5-1.6-0.8-2.5-0.8H33
		c-1.6,0-3.1,0.7-4.1,2l-6.3,7.7c-0.1,0.1-0.1,0.1-0.1,0.2c0,0,0,0.1,0.1,0.2l0.4,0.3c1.1,0.9,2.7,0.8,3.8-0.1l4-3.4
		c0.6-0.5,1.3-0.7,2-0.7c1.1,0,2.2,0.6,2.7,1.6l8.1,14.4H47c0.6,0,1,0.4,1,1S47.6,38.8,47,38.8z"/>
<path fill="#859FE5" d="M11,39.8H4.6c-1,0-1.8-0.7-2-1.6C1.2,30.1,1,23.1,1,19.8c0-1.1,0.9-2,2-2h8c1.1,0,2,0.9,2,2v18
	C13,38.9,12.1,39.8,11,39.8z"/>
<path fill="#2A2135" d="M11,40.8H4.6c-1.5,0-2.7-1-3-2.5C0.2,30.2,0,23.2,0,19.8c0-1.6,1.4-3,3-3h8c1.7,0,3,1.3,3,3v18
	C14,39.5,12.7,40.8,11,40.8z M3,18.8c-0.5,0-1,0.4-1,1C2,23.2,2.2,30,3.6,38c0.1,0.5,0.5,0.8,1,0.8H11c0.6,0,1-0.4,1-1v-18
	c0-0.6-0.4-1-1-1H3z"/>
<line fill="#859FE5" x1="7" y1="33.8" x2="7" y2="33.8"/>
<path fill="#2A2135" d="M7,34.8c-0.3,0-0.5-0.1-0.7-0.3C6.1,34.3,6,34.1,6,33.8c0-0.3,0.1-0.5,0.3-0.7
	c0.4-0.4,1-0.4,1.4,0C7.9,33.3,8,33.5,8,33.8s-0.1,0.5-0.3,0.7C7.5,34.7,7.3,34.8,7,34.8z"/>
<path fill="#FFCC00" d="M49,39.8h6.4c1,0,1.8-0.7,2-1.6c1.5-8.1,1.6-15.1,1.6-18.4c0-1.1-0.9-2-2-2h-8c-1.1,0-2,0.9-2,2
	v18C47,38.9,47.9,39.8,49,39.8z"/>
<path fill="#383128" d="M55.4,40.8H49c-1.7,0-3-1.3-3-3v-18c0-1.7,1.3-3,3-3h8c1.6,0,3,1.3,3,3c0,3.4-0.2,10.4-1.6,18.6
	C58.1,39.8,56.9,40.8,55.4,40.8z M49,18.8c-0.6,0-1,0.4-1,1v18c0,0.6,0.4,1,1,1h6.4c0.5,0,0.9-0.3,1-0.8c1.4-8,1.6-14.8,1.6-18.2
	c0-0.5-0.5-1-1-1H49z"/>
<line fill="#FFCC00" x1="53" y1="33.8" x2="53" y2="33.8"/>
<path fill="#383128" d="M53,34.8c-0.3,0-0.5-0.1-0.7-0.3c-0.2-0.2-0.3-0.4-0.3-0.7c0-0.3,0.1-0.5,0.3-0.7
	c0.4-0.4,1-0.4,1.4,0c0.2,0.2,0.3,0.5,0.3,0.7c0,0.3-0.1,0.5-0.3,0.7C53.5,34.7,53.3,34.8,53,34.8z"/>
</svg>
